<mxfile host="app.diagrams.net" modified="2020-08-07T06:45:17.611Z" agent="5.0 (Windows NT 10.0; Win64; x64) AppleWebKit/537.36 (KHTML, like Gecko) Chrome/84.0.4147.89 Safari/537.36" etag="eAkt77xuFfSRfUxB25v2" version="13.6.0" type="github">
  <diagram id="dzgoCQNqx3lQuofZHwmd" name="Page-1">
    <mxGraphModel dx="2272" dy="762" grid="1" gridSize="10" guides="1" tooltips="1" connect="1" arrows="1" fold="1" page="1" pageScale="1" pageWidth="850" pageHeight="1100" math="0" shadow="0">
      <root>
        <mxCell id="0" />
        <mxCell id="1" parent="0" />
        <mxCell id="01PI_eOZKyIenbhRhpd1-3" value="call" style="rounded=0;orthogonalLoop=1;jettySize=auto;html=1;exitX=1;exitY=0.5;exitDx=0;exitDy=0;" edge="1" parent="1" source="01PI_eOZKyIenbhRhpd1-1" target="01PI_eOZKyIenbhRhpd1-2">
          <mxGeometry relative="1" as="geometry" />
        </mxCell>
        <mxCell id="01PI_eOZKyIenbhRhpd1-1" value="&amp;nbsp; &amp;nbsp;AzureBatchSchedulerServer::Init()" style="rounded=0;whiteSpace=wrap;html=1;align=left;" vertex="1" parent="1">
          <mxGeometry x="-270" y="310" width="200" height="60" as="geometry" />
        </mxCell>
        <mxCell id="01PI_eOZKyIenbhRhpd1-5" value="call" style="edgeStyle=none;rounded=0;orthogonalLoop=1;jettySize=auto;html=1;exitX=1;exitY=0.5;exitDx=0;exitDy=0;" edge="1" parent="1" source="01PI_eOZKyIenbhRhpd1-2" target="01PI_eOZKyIenbhRhpd1-4">
          <mxGeometry relative="1" as="geometry" />
        </mxCell>
        <mxCell id="01PI_eOZKyIenbhRhpd1-2" value="&amp;nbsp; Create a thread named startHBLoopThread and call StartTVMHBLoop in StartUp_StartTVMLoop case&amp;nbsp;" style="rounded=0;whiteSpace=wrap;html=1;align=left;" vertex="1" parent="1">
          <mxGeometry y="320" width="290" height="40" as="geometry" />
        </mxCell>
        <mxCell id="01PI_eOZKyIenbhRhpd1-4" value="&amp;nbsp; StartTVMHBLoop():&amp;nbsp; &amp;nbsp;&lt;br&gt;&amp;nbsp; &amp;nbsp; &amp;nbsp; &amp;nbsp;new a TVMHeartbeatLoop as m_heartbeatLoop&lt;br&gt;&amp;nbsp; &amp;nbsp; &amp;nbsp; &amp;nbsp;for hb in m_heartbeatRequestToBeSendOnStartUp:&lt;br&gt;&amp;nbsp; &amp;nbsp; &amp;nbsp; &amp;nbsp; &amp;nbsp; &amp;nbsp; m_heartbeatLoop-&amp;gt;Enqueue(hb)&lt;br&gt;&amp;nbsp; &amp;nbsp; &amp;nbsp; &amp;nbsp;m_heartbeatLoop-&amp;gt;Start()" style="rounded=0;whiteSpace=wrap;html=1;align=left;" vertex="1" parent="1">
          <mxGeometry x="360" y="290" width="310" height="90" as="geometry" />
        </mxCell>
        <mxCell id="01PI_eOZKyIenbhRhpd1-22" style="edgeStyle=none;rounded=0;orthogonalLoop=1;jettySize=auto;html=1;exitX=0.5;exitY=0;exitDx=0;exitDy=0;" edge="1" parent="1" source="01PI_eOZKyIenbhRhpd1-6" target="01PI_eOZKyIenbhRhpd1-6">
          <mxGeometry relative="1" as="geometry" />
        </mxCell>
        <mxCell id="01PI_eOZKyIenbhRhpd1-25" style="edgeStyle=none;rounded=0;orthogonalLoop=1;jettySize=auto;html=1;entryX=1;entryY=0.5;entryDx=0;entryDy=0;" edge="1" parent="1" source="01PI_eOZKyIenbhRhpd1-7" target="01PI_eOZKyIenbhRhpd1-11">
          <mxGeometry relative="1" as="geometry" />
        </mxCell>
        <mxCell id="01PI_eOZKyIenbhRhpd1-26" style="edgeStyle=none;rounded=0;orthogonalLoop=1;jettySize=auto;html=1;" edge="1" parent="1" source="01PI_eOZKyIenbhRhpd1-10" target="01PI_eOZKyIenbhRhpd1-15">
          <mxGeometry relative="1" as="geometry" />
        </mxCell>
        <mxCell id="01PI_eOZKyIenbhRhpd1-27" style="edgeStyle=none;rounded=0;orthogonalLoop=1;jettySize=auto;html=1;" edge="1" parent="1" source="01PI_eOZKyIenbhRhpd1-15" target="01PI_eOZKyIenbhRhpd1-19">
          <mxGeometry relative="1" as="geometry" />
        </mxCell>
        <mxCell id="01PI_eOZKyIenbhRhpd1-14" value="RecurringAction" style="swimlane;fontStyle=1;align=center;verticalAlign=top;childLayout=stackLayout;horizontal=1;startSize=26;horizontalStack=0;resizeParent=1;resizeParentMax=0;resizeLast=0;collapsible=1;marginBottom=0;" vertex="1" parent="1">
          <mxGeometry x="-210" y="564" width="160" height="86" as="geometry" />
        </mxCell>
        <mxCell id="01PI_eOZKyIenbhRhpd1-15" value="+ Start()" style="text;strokeColor=none;fillColor=none;align=left;verticalAlign=top;spacingLeft=4;spacingRight=4;overflow=hidden;rotatable=0;points=[[0,0.5],[1,0.5]];portConstraint=eastwest;" vertex="1" parent="01PI_eOZKyIenbhRhpd1-14">
          <mxGeometry y="26" width="160" height="26" as="geometry" />
        </mxCell>
        <mxCell id="01PI_eOZKyIenbhRhpd1-16" value="" style="line;strokeWidth=1;fillColor=none;align=left;verticalAlign=middle;spacingTop=-1;spacingLeft=3;spacingRight=3;rotatable=0;labelPosition=right;points=[];portConstraint=eastwest;" vertex="1" parent="01PI_eOZKyIenbhRhpd1-14">
          <mxGeometry y="52" width="160" height="8" as="geometry" />
        </mxCell>
        <mxCell id="01PI_eOZKyIenbhRhpd1-17" value="+ method(type): type" style="text;strokeColor=none;fillColor=none;align=left;verticalAlign=top;spacingLeft=4;spacingRight=4;overflow=hidden;rotatable=0;points=[[0,0.5],[1,0.5]];portConstraint=eastwest;" vertex="1" parent="01PI_eOZKyIenbhRhpd1-14">
          <mxGeometry y="60" width="160" height="26" as="geometry" />
        </mxCell>
        <mxCell id="01PI_eOZKyIenbhRhpd1-18" value="CsLockable" style="swimlane;fontStyle=1;align=center;verticalAlign=top;childLayout=stackLayout;horizontal=1;startSize=26;horizontalStack=0;resizeParent=1;resizeParentMax=0;resizeLast=0;collapsible=1;marginBottom=0;" vertex="1" parent="1">
          <mxGeometry x="-440" y="564" width="160" height="86" as="geometry" />
        </mxCell>
        <mxCell id="01PI_eOZKyIenbhRhpd1-19" value="+ field: type" style="text;strokeColor=none;fillColor=none;align=left;verticalAlign=top;spacingLeft=4;spacingRight=4;overflow=hidden;rotatable=0;points=[[0,0.5],[1,0.5]];portConstraint=eastwest;" vertex="1" parent="01PI_eOZKyIenbhRhpd1-18">
          <mxGeometry y="26" width="160" height="26" as="geometry" />
        </mxCell>
        <mxCell id="01PI_eOZKyIenbhRhpd1-20" value="" style="line;strokeWidth=1;fillColor=none;align=left;verticalAlign=middle;spacingTop=-1;spacingLeft=3;spacingRight=3;rotatable=0;labelPosition=right;points=[];portConstraint=eastwest;" vertex="1" parent="01PI_eOZKyIenbhRhpd1-18">
          <mxGeometry y="52" width="160" height="8" as="geometry" />
        </mxCell>
        <mxCell id="01PI_eOZKyIenbhRhpd1-21" value="+ method(type): type" style="text;strokeColor=none;fillColor=none;align=left;verticalAlign=top;spacingLeft=4;spacingRight=4;overflow=hidden;rotatable=0;points=[[0,0.5],[1,0.5]];portConstraint=eastwest;" vertex="1" parent="01PI_eOZKyIenbhRhpd1-18">
          <mxGeometry y="60" width="160" height="26" as="geometry" />
        </mxCell>
        <mxCell id="01PI_eOZKyIenbhRhpd1-6" value="TVMHeartbeatLoop" style="swimlane;fontStyle=1;align=center;verticalAlign=top;childLayout=stackLayout;horizontal=1;startSize=26;horizontalStack=0;resizeParent=1;resizeParentMax=0;resizeLast=0;collapsible=1;marginBottom=0;" vertex="1" parent="1">
          <mxGeometry x="290" y="560" width="160" height="86" as="geometry" />
        </mxCell>
        <mxCell id="01PI_eOZKyIenbhRhpd1-7" value="+ field: type" style="text;strokeColor=none;fillColor=none;align=left;verticalAlign=top;spacingLeft=4;spacingRight=4;overflow=hidden;rotatable=0;points=[[0,0.5],[1,0.5]];portConstraint=eastwest;" vertex="1" parent="01PI_eOZKyIenbhRhpd1-6">
          <mxGeometry y="26" width="160" height="26" as="geometry" />
        </mxCell>
        <mxCell id="01PI_eOZKyIenbhRhpd1-8" value="" style="line;strokeWidth=1;fillColor=none;align=left;verticalAlign=middle;spacingTop=-1;spacingLeft=3;spacingRight=3;rotatable=0;labelPosition=right;points=[];portConstraint=eastwest;" vertex="1" parent="01PI_eOZKyIenbhRhpd1-6">
          <mxGeometry y="52" width="160" height="8" as="geometry" />
        </mxCell>
        <mxCell id="01PI_eOZKyIenbhRhpd1-9" value="+ method(type): type" style="text;strokeColor=none;fillColor=none;align=left;verticalAlign=top;spacingLeft=4;spacingRight=4;overflow=hidden;rotatable=0;points=[[0,0.5],[1,0.5]];portConstraint=eastwest;" vertex="1" parent="01PI_eOZKyIenbhRhpd1-6">
          <mxGeometry y="60" width="160" height="26" as="geometry" />
        </mxCell>
        <mxCell id="01PI_eOZKyIenbhRhpd1-10" value="RefCountedRecurringAction" style="swimlane;fontStyle=1;align=center;verticalAlign=top;childLayout=stackLayout;horizontal=1;startSize=26;horizontalStack=0;resizeParent=1;resizeParentMax=0;resizeLast=0;collapsible=1;marginBottom=0;" vertex="1" parent="1">
          <mxGeometry x="40" y="560" width="170" height="86" as="geometry" />
        </mxCell>
        <mxCell id="01PI_eOZKyIenbhRhpd1-11" value="+ field: type" style="text;strokeColor=none;fillColor=none;align=left;verticalAlign=top;spacingLeft=4;spacingRight=4;overflow=hidden;rotatable=0;points=[[0,0.5],[1,0.5]];portConstraint=eastwest;" vertex="1" parent="01PI_eOZKyIenbhRhpd1-10">
          <mxGeometry y="26" width="170" height="26" as="geometry" />
        </mxCell>
        <mxCell id="01PI_eOZKyIenbhRhpd1-12" value="" style="line;strokeWidth=1;fillColor=none;align=left;verticalAlign=middle;spacingTop=-1;spacingLeft=3;spacingRight=3;rotatable=0;labelPosition=right;points=[];portConstraint=eastwest;" vertex="1" parent="01PI_eOZKyIenbhRhpd1-10">
          <mxGeometry y="52" width="170" height="8" as="geometry" />
        </mxCell>
        <mxCell id="01PI_eOZKyIenbhRhpd1-13" value="+ method(type): type" style="text;strokeColor=none;fillColor=none;align=left;verticalAlign=top;spacingLeft=4;spacingRight=4;overflow=hidden;rotatable=0;points=[[0,0.5],[1,0.5]];portConstraint=eastwest;" vertex="1" parent="01PI_eOZKyIenbhRhpd1-10">
          <mxGeometry y="60" width="170" height="26" as="geometry" />
        </mxCell>
        <mxCell id="01PI_eOZKyIenbhRhpd1-28" value="&amp;nbsp; RecurringAction::Star():&amp;nbsp;&lt;br&gt;&amp;nbsp; &amp;nbsp; &amp;nbsp;create a CsThreadPool named m_threadpool and Initialize it&amp;nbsp;&lt;br&gt;&amp;nbsp; &amp;nbsp; &amp;nbsp;Schedule(m_startTime)&lt;br&gt;&amp;nbsp; &amp;nbsp; &amp;nbsp;StartMonitor()" style="rounded=0;whiteSpace=wrap;html=1;align=left;" vertex="1" parent="1">
          <mxGeometry x="760" y="240" width="350" height="70" as="geometry" />
        </mxCell>
      </root>
    </mxGraphModel>
  </diagram>
</mxfile>
